<svg width="884" height="360" viewBox="0 0 884 360" fill="none" xmlns="http://www.w3.org/2000/svg">
<path d="M339.6 359.4H337.6C338.4 336.8 334.2 322.1 324.7 314.6C315.2 307.1 299.3 306.6 277 313.5C276.731 313.569 276.445 313.533 276.2 313.4C275.953 313.236 275.775 312.987 275.7 312.7C275.081 308.679 273.428 304.889 270.904 301.698C268.38 298.508 265.071 296.028 261.3 294.5C251.7 290.6 239.8 292.8 229.6 300.3C204.8 318.4 207.5 350.8 207.5 351.1C207.504 351.306 207.45 351.509 207.344 351.686C207.238 351.863 207.084 352.006 206.9 352.1C206.721 352.196 206.515 352.228 206.316 352.192C206.116 352.155 205.934 352.052 205.8 351.9C192.9 340.4 183.9 335.9 176.6 337.2C169.3 338.5 162.7 346.3 155.2 359.4H152.9C161 345.2 167.6 336.7 176.2 335.2C184.8 333.7 192.9 338.1 205.4 348.9C205.3 340.9 206.7 314.6 228.4 298.7C239.2 290.8 251.8 288.5 262 292.7C265.93 294.233 269.411 296.731 272.12 299.965C274.829 303.198 276.679 307.062 277.5 311.2C299.9 304.5 315.7 305.1 325.9 313.1C336.1 321.1 340.4 336.1 339.6 359.4Z" fill="#808AFF"/>
<path d="M883.2 359.4H718.3V307.9C756.7 271.3 800.5 296.5 803.4 323.7C847.1 295.3 888.2 318 883.2 359.4Z" fill="#404EED"/>
<path d="M718.301 223.5H282.701V359.4H718.301V223.5Z" fill="#5865F2"/>
<path d="M282.701 265.5L718.301 230.4V223.5H282.701V265.5Z" fill="#4B59F2"/>
<path d="M718.301 223.5H715.101V359.4H718.301V223.5Z" fill="#3543DE"/>
<path d="M679.001 223.5H675.801V359.4H679.001V223.5Z" fill="#3543DE"/>
<path d="M639.701 223.5H636.501V359.4H639.701V223.5Z" fill="#3543DE"/>
<path d="M600.401 223.5H597.201V359.4H600.401V223.5Z" fill="#3543DE"/>
<path d="M561.001 223.5H557.801V359.4H561.001V223.5Z" fill="#3543DE"/>
<path d="M521.701 223.5H518.501V359.4H521.701V223.5Z" fill="#3543DE"/>
<path d="M482.401 223.5H479.201V359.4H482.401V223.5Z" fill="#3543DE"/>
<path d="M443.101 223.5H439.901V359.4H443.101V223.5Z" fill="#3543DE"/>
<path d="M403.801 223.5H400.601V359.4H403.801V223.5Z" fill="#3543DE"/>
<path d="M364.501 223.5H361.301V359.4H364.501V223.5Z" fill="#3543DE"/>
<path d="M325.201 223.5H322.001V359.4H325.201V223.5Z" fill="#3543DE"/>
<path d="M285.901 223.5H282.701V359.4H285.901V223.5Z" fill="#3543DE"/>
<path d="M400.901 97.8C396.801 84.2 394.601 77.7 402.001 73.7C409.401 69.7 431.901 72.4 442.401 74.9C452.901 77.4 454.401 80 447.501 90.3L400.901 97.8Z" fill="#FFF4B3"/>
<path d="M396.101 220.1C394.501 179.7 395.501 146.1 396.801 128.2C390.101 123.8 387.001 120.4 385.701 118.5C385.431 118.134 385.293 117.687 385.312 117.232C385.33 116.778 385.502 116.343 385.801 116C396.401 102.7 405.501 91.0999 415.001 85.6999C424.501 80.2999 437.501 78.9 458.201 99.5C458.399 99.7637 458.497 100.089 458.479 100.418C458.461 100.747 458.327 101.06 458.101 101.3C456.457 102.932 454.721 104.468 452.901 105.9C457.101 113.4 463.201 124.8 463.201 124.8H468.001C471.077 124.8 474.028 126.022 476.203 128.198C478.379 130.373 479.601 133.323 479.601 136.4C479.701 145.7 477.501 156.9 473.201 171.3C492.401 186.9 487.701 220 487.701 220L396.101 220.1Z" fill="#29CC7A"/>
<path d="M473.201 171.3C473.801 169.2 474.401 167.3 474.901 165.3L459.801 173.7C459.801 173.7 435.901 157.6 395.801 147.6C395.101 166.2 395.001 191.4 396.101 220.1H487.701C487.701 220.1 492.401 186.9 473.201 171.3Z" fill="#8CD9FF"/>
<path d="M477.001 175C475.835 173.667 474.564 172.43 473.201 171.3C473.801 169.2 474.401 167.3 474.901 165.3L459.801 173.7C459.801 173.7 435.901 157.6 395.801 147.6C395.701 149.9 395.601 152.4 395.601 154.9C426.301 167.6 442.801 189.4 444.701 220.1H467.401C471.401 202.5 474.601 187.1 477.001 175Z" fill="#BAE8FF"/>
<path d="M407.901 135.9H408.301C408.501 135.7 408.701 135.6 408.801 135.3L417.501 107.2C417.559 107.082 417.592 106.953 417.595 106.821C417.598 106.69 417.573 106.559 417.52 106.439C417.468 106.318 417.389 106.21 417.291 106.123C417.192 106.036 417.076 105.972 416.949 105.935C416.823 105.898 416.69 105.889 416.56 105.908C416.43 105.928 416.306 105.976 416.196 106.049C416.087 106.122 415.995 106.218 415.926 106.331C415.858 106.443 415.815 106.569 415.801 106.7L407.401 133.9C403.772 132.352 400.291 130.477 397.001 128.3H396.801C396.801 128.9 396.701 129.6 396.701 130.2C400.156 132.423 403.804 134.331 407.601 135.9H407.901Z" fill="black"/>
<path d="M445.101 90.7L409.301 93.3C449.301 100.9 451.001 102 445.101 90.7Z" fill="black"/>
<path d="M464.901 195.5L461.101 160C461.026 159.373 460.716 158.797 460.233 158.389C459.751 157.981 459.132 157.77 458.501 157.8H454.701L453.001 154.5C452.475 153.591 451.642 152.9 450.652 152.552C449.662 152.203 448.579 152.22 447.601 152.6C446.592 153.029 445.774 153.811 445.301 154.8C437.801 170.9 434.101 197.4 433.401 202.4C433.385 202.634 433.444 202.867 433.57 203.065C433.696 203.263 433.882 203.415 434.101 203.5L455.701 210.4C455.821 210.463 455.957 210.489 456.092 210.476C456.227 210.463 456.355 210.41 456.461 210.326C456.567 210.241 456.646 210.127 456.689 209.998C456.731 209.87 456.735 209.731 456.701 209.6L455.901 199.5L463.901 197C464.217 196.908 464.491 196.707 464.674 196.432C464.857 196.158 464.937 195.828 464.901 195.5Z" fill="#EB459F"/>
<path d="M446.401 167.2L443.101 201.7" stroke="#D11583" stroke-width="2" stroke-miterlimit="10" stroke-linecap="round"/>
<path d="M436.154 116.711C437.536 116.152 437.785 113.541 436.709 110.878C435.633 108.216 433.641 106.51 432.258 107.068C430.875 107.627 430.627 110.238 431.703 112.901C432.778 115.564 434.771 117.27 436.154 116.711Z" fill="black"/>
<path d="M446.463 122.24C448.246 118.872 448.03 115.262 445.98 114.177C443.93 113.091 440.823 114.942 439.039 118.31C437.256 121.677 437.473 125.287 439.522 126.373C441.572 127.458 444.68 125.608 446.463 122.24Z" stroke="white" stroke-width="2" stroke-miterlimit="10"/>
<path d="M461.188 122.26C462.971 118.893 462.755 115.283 460.705 114.197C458.655 113.112 455.548 114.962 453.765 118.33C451.982 121.698 452.198 125.308 454.248 126.393C456.298 127.478 459.405 125.628 461.188 122.26Z" stroke="white" stroke-width="2" stroke-miterlimit="10"/>
<path d="M451.074 116.228C451.996 115.856 451.905 113.479 450.87 110.918C449.836 108.358 448.25 106.584 447.328 106.957C446.407 107.329 446.498 109.706 447.532 112.267C448.567 114.827 450.153 116.601 451.074 116.228Z" fill="black"/>
<path d="M460.601 142.4C452.88 142.426 445.388 139.775 439.401 134.9C433.201 129.8 435.701 129.2 439.601 129.1C443.501 129 462.201 129.7 467.601 130.5C473.001 131.3 474.001 142 460.601 142.4Z" fill="#912869"/>
<path d="M460.601 142.4C452.88 142.426 445.388 139.775 439.401 134.9C433.201 129.8 435.701 129.2 439.601 129.1C443.501 129 462.201 129.7 467.601 130.5C473.001 131.3 474.001 142 460.601 142.4Z" fill="#611B46"/>
<path d="M460.201 153.6L459.801 149.9C462.626 149.675 465.379 148.893 467.901 147.6" stroke="black" stroke-width="2" stroke-linecap="round" stroke-linejoin="round"/>
<path d="M464.301 141.9C458.901 136.7 451.601 132.8 438.101 133.7C449.701 144.4 461.801 142.6 464.301 141.9Z" fill="#EB459F"/>
<path d="M447.101 118.7H453.201" stroke="white" stroke-width="2" stroke-miterlimit="10"/>
<path d="M437.901 119.9L412.101 109.4C411.56 109.19 410.976 109.115 410.4 109.179C409.823 109.244 409.271 109.447 408.789 109.771C408.308 110.095 407.912 110.531 407.636 111.041C407.359 111.551 407.21 112.12 407.201 112.7V112.7C407.189 113.383 407.383 114.053 407.758 114.624C408.132 115.194 408.67 115.639 409.301 115.9L411.001 116.7" stroke="white" stroke-width="2" stroke-miterlimit="10" stroke-linecap="round"/>
<path d="M432.501 106.8C434.53 106.852 436.556 106.582 438.501 106" stroke="black" stroke-width="2" stroke-miterlimit="10" stroke-linecap="round"/>
<path d="M447.501 106.8C448.78 106.833 450.049 106.559 451.201 106" stroke="black" stroke-width="2" stroke-miterlimit="10" stroke-linecap="round"/>
<path d="M404.301 94.2999C440.001 93.7999 452.101 89.7999 462.301 86.0999C472.501 82.3999 471.501 79.4999 463.701 79.7999C455.901 80.0999 429.201 90.2999 404.301 94.2999Z" fill="#FFF4B3"/>
<path d="M395.501 158.1L395.301 167.9L400.201 166C400.201 166 426.301 155.1 432.501 153.6C438.701 152.1 444.601 155 453.501 158.4C462.401 161.8 460.101 164.9 457.301 167.9C454.501 170.9 454.601 170.7 439.901 170.7C411.801 191 403.201 202.9 391.701 202.9C384.801 202.9 378.901 199.8 374.501 186.2C370.101 172.6 378.301 166.4 395.501 158.1Z" fill="#29CC7A"/>
<path d="M493.401 169.3L478.401 151.2L452.801 176.7L470.901 191.8C470.701 193.5 470.901 194.8 471.801 195.7C474.501 198.4 482.401 194.9 489.501 187.9C496.601 180.9 500.001 172.9 497.301 170.2C496.401 169.3 495.101 169.1 493.401 169.3Z" fill="white"/>
<path d="M468.965 167.378C475.995 160.349 480.174 153.13 478.299 151.256C476.425 149.381 469.207 153.56 462.177 160.59C455.148 167.619 450.969 174.837 452.843 176.712C454.718 178.586 461.936 174.407 468.965 167.378Z" fill="white"/>
<path d="M467.227 165.664C473.593 159.298 477.866 153.251 476.773 152.158C475.68 151.065 469.633 155.338 463.267 161.704C456.902 168.069 452.628 174.116 453.721 175.21C454.815 176.303 460.862 172.029 467.227 165.664Z" fill="#BAE8FF"/>
<path d="M492.001 161.7C496.301 162.3 498.001 166.2 496.301 171.4C496.108 171.954 495.776 172.448 495.336 172.835C494.896 173.223 494.363 173.49 493.79 173.61C493.216 173.731 492.621 173.702 492.062 173.525C491.504 173.347 491 173.029 490.601 172.6C489.612 171.551 489.013 170.194 488.903 168.756C488.794 167.318 489.182 165.887 490.001 164.7L492.001 161.7Z" fill="#29CC7A"/>
<path d="M484.501 158.7C484.301 162.4 482.101 166.1 480.501 168.5C480.069 169.174 479.874 169.972 479.946 170.769C480.019 171.565 480.355 172.315 480.901 172.9L481.701 173.6C481.961 173.866 482.273 174.077 482.616 174.222C482.96 174.366 483.328 174.44 483.701 174.44C484.073 174.44 484.442 174.366 484.785 174.222C485.129 174.077 485.44 173.866 485.701 173.6C488.714 170.85 490.838 167.264 491.801 163.3C493.001 157.9 489.101 154.1 482.301 155.9L484.501 158.7Z" fill="#29CC7A"/>
<path d="M404.301 94.3L416.501 93.3L445.801 87.5L438.501 80.3H403.601L404.301 94.3Z" fill="#FFF4B3"/>
<path d="M463.401 131.2L456.401 130.8C457.201 135 459.201 137.2 460.901 136.5C462.601 135.8 463.201 132.1 463.401 131.2Z" fill="white"/>
<path d="M441.801 130.3C442.701 135.1 444.501 137.6 446.201 136.8C447.901 136 448.301 132 448.601 130.4L441.801 130.3Z" fill="white"/>
<path d="M734.401 223.5H273.301" stroke="#2835BD" stroke-width="8" stroke-linecap="round" stroke-linejoin="round"/>
<path d="M453.401 174.7C453.476 174.906 453.616 175.082 453.801 175.2C453.901 175.2 453.901 175.2 453.901 175.3C453.901 175.4 461.101 171.8 467.301 165.6V165.4L463.401 161.6L460.201 158.3L456.001 158.5L447.801 155.4L447.501 156.1C451.001 157.3 451.701 169.9 453.401 174.7Z" fill="#EB459F"/>
<path d="M454.701 157.9C456.389 161.316 457.891 164.821 459.201 168.4C459.27 168.561 459.38 168.702 459.52 168.807C459.661 168.912 459.826 168.979 460.001 169H460.301C460.511 168.912 460.685 168.756 460.794 168.556C460.904 168.356 460.941 168.124 460.901 167.9C460.801 167.6 458.601 161.8 456.601 157.9H454.701Z" fill="#D11583"/>
<path d="M455.901 199.7H455.701L448.001 202C447.859 202.043 447.73 202.12 447.626 202.225C447.521 202.329 447.444 202.458 447.401 202.6C447.372 202.763 447.385 202.931 447.437 203.088C447.49 203.245 447.58 203.387 447.701 203.5L454.501 209.4C454.542 209.496 454.613 209.577 454.703 209.63C454.792 209.684 454.897 209.709 455.001 209.7C455.132 209.704 455.263 209.679 455.384 209.628C455.505 209.576 455.613 209.498 455.701 209.4C455.782 209.309 455.845 209.203 455.884 209.088C455.923 208.972 455.939 208.85 455.93 208.729C455.92 208.607 455.886 208.489 455.83 208.38C455.773 208.272 455.695 208.177 455.601 208.1L450.001 203.2L456.001 201.4L455.901 199.7Z" fill="#D11583"/>
<path d="M395.001 167.6L380.901 174.3" stroke="black" stroke-width="2" stroke-linecap="round" stroke-linejoin="round"/>
<path d="M449.901 82.8C434.488 86.9292 418.866 90.2339 403.101 92.7" stroke="#FFC619" stroke-width="2" stroke-miterlimit="10" stroke-linecap="round"/>
<path d="M462.401 178.6L473.201 188.5C473.54 188.798 473.967 188.978 474.418 189.014C474.868 189.05 475.318 188.94 475.701 188.7C475.943 188.528 476.145 188.303 476.29 188.044C476.435 187.784 476.52 187.495 476.539 187.198C476.558 186.901 476.511 186.603 476.4 186.327C476.29 186.05 476.119 185.802 475.901 185.6L465.401 175.5C465.08 175.209 464.678 175.023 464.248 174.97C463.819 174.916 463.383 174.996 463.001 175.2L462.701 175.4C462.433 175.562 462.208 175.784 462.042 176.049C461.876 176.313 461.774 176.613 461.745 176.924C461.716 177.236 461.76 177.549 461.874 177.84C461.988 178.131 462.168 178.391 462.401 178.6Z" fill="#BAE8FF"/>
<path d="M489.501 170.5C491.325 168.079 492.465 165.212 492.801 162.2" stroke="black" stroke-width="2" stroke-linecap="round" stroke-linejoin="round"/>
<path d="M578.19 32.2318C579.101 27.9085 576.247 23.6467 571.816 22.7129C567.384 21.7791 563.053 24.5268 562.142 28.8501C561.231 33.1734 564.085 37.4352 568.516 38.369C572.948 39.3029 577.279 36.5552 578.19 32.2318Z" fill="#2A39D4"/>
<path d="M631.699 106.5C638.999 106.9 647.799 109.9 658.799 122.1C664.999 115.9 667.999 117.6 676.299 124.7C684.599 131.8 702.399 145.3 706.799 149.8C711.199 154.3 714.499 164 702.499 171.3C690.499 178.6 669.199 165.2 657.999 157.4C646.799 149.6 631.699 140.5 631.699 140.5V106.5Z" fill="#2331B5"/>
<path d="M672.999 121.9C675.907 126.69 678.352 131.746 680.299 137C682.599 144.2 679.699 148.4 673.799 153.3C667.899 158.2 665.499 157.1 662.399 154.6C662.212 154.493 661.992 154.457 661.78 154.499C661.569 154.54 661.379 154.656 661.246 154.826C661.112 154.996 661.044 155.207 661.054 155.423C661.064 155.638 661.151 155.843 661.299 156C662.884 157.391 664.893 158.202 666.999 158.3C669.499 158.3 671.999 157.1 674.999 154.6C680.099 150.3 684.899 145.4 681.899 136.4C680.787 133.162 679.416 130.018 677.799 127C677.17 125.789 676.322 124.704 675.299 123.8L672.999 121.9Z" fill="#3442D9"/>
<path d="M657.899 151.8C663.299 157 676.199 166.2 676.199 166.2" stroke="black" stroke-width="2" stroke-miterlimit="10" stroke-linecap="round"/>
<path d="M604.881 105.224C630.748 97.8552 646.333 72.9792 639.691 49.6615C633.049 26.3437 606.694 13.4144 580.827 20.7828C554.96 28.1513 539.375 53.0274 546.017 76.3451C552.66 99.6628 579.014 112.592 604.881 105.224Z" fill="#FF78B9"/>
<path d="M558.799 58.2001C558.799 67.8001 563.399 76.3001 569.099 77.2001C574.799 78.1001 576.199 73.1001 576.399 63.8001C576.399 61.4001 576.499 59.0002 576.699 56.5002C577.299 47.9002 574.199 43.2001 569.099 42.4001C563.999 41.6001 558.799 48.6001 558.799 58.2001Z" fill="white"/>
<path d="M601.199 58.8001C600.21 57.5131 599.624 55.9612 599.517 54.3412C599.411 52.7212 599.787 51.1059 600.599 49.7001C608.599 36.1001 615.899 35.6001 621.099 35.9001C626.299 36.2001 630.299 41.1001 625.999 53.5001C632.099 60.1001 629.599 66.2001 620.899 67.0001C612.199 67.8001 607.499 67.1001 601.199 58.8001Z" fill="#D11583"/>
<path d="M658.399 192.1C659.599 159.3 649.099 155.1 648.099 145.3C647.099 135.5 646.099 122.3 635.299 108.1C635.299 108.1 636.599 94.8001 637.299 85.9001C637.317 85.5497 637.257 85.1998 637.125 84.8749C636.992 84.5501 636.79 84.2582 636.533 84.0199C636.275 83.7816 635.969 83.6025 635.635 83.4955C635.301 83.3884 634.947 83.3558 634.599 83.4001C627.591 84.5157 620.491 84.951 613.399 84.7001C601.199 84.3001 584.699 83.1001 567.099 100.2L572.799 108.2L572.399 108.9C572.117 109.382 571.944 109.921 571.893 110.477C571.843 111.034 571.915 111.595 572.106 112.12C572.297 112.645 572.602 113.122 572.998 113.516C573.395 113.91 573.873 114.212 574.399 114.4L575.499 114.8C575.499 114.8 559.399 124.5 564.199 146.4C568.999 168.3 563.899 189.5 571.999 196C573.638 197.302 575.584 198.161 577.651 198.494C579.717 198.827 581.835 198.622 583.799 197.9L620.899 217.7C634.399 232.6 653.599 249.3 653.599 249.3L638.799 284.6L654.399 323.9C667.699 291.3 685.199 259.3 688.299 244.5C691.399 229.7 681.399 221 658.399 192.1Z" fill="#2331B5"/>
<path d="M643.799 303.8C651.199 280.9 659.499 260.2 661.999 254.2C662.211 253.673 662.257 253.095 662.132 252.541C662.007 251.988 661.716 251.485 661.299 251.1C639.699 230.4 634.599 223.3 634.599 223.3" stroke="#3442D9" stroke-width="2" stroke-miterlimit="10"/>
<path d="M586.699 178L573.299 168.9C573.299 168.9 581.399 157.8 585.899 151.1L586.999 149.4C587.042 149.299 587.105 149.208 587.185 149.132C587.265 149.057 587.359 148.998 587.462 148.961C587.565 148.923 587.675 148.907 587.785 148.914C587.895 148.921 588.001 148.95 588.099 149C588.283 149.086 588.433 149.232 588.523 149.413C588.614 149.595 588.641 149.801 588.599 150C585.699 167.7 586.699 178 586.699 178Z" fill="black"/>
<path d="M637.099 87.6001C629.999 90.0001 620.599 89.9001 609.399 89.6001C598.199 89.3001 586.899 89.0001 568.399 102L571.399 106.3C588.499 94.2001 597.699 94.5001 609.299 94.8001C620.899 95.1001 629.099 95.2001 636.699 93.2001C636.799 91.3001 636.999 89.4001 637.099 87.6001Z" fill="#3442D9"/>
<path d="M631.699 190.5C631.922 190.502 632.137 190.421 632.303 190.273C632.469 190.125 632.575 189.921 632.599 189.7C632.799 173.6 626.699 157.2 624.099 150.9C621.37 144.411 619.715 137.521 619.199 130.5C618.399 121.4 616.499 114.3 615.299 111.5L618.699 84.7001H616.899L613.499 111.8V112C614.599 114.4 616.599 121.5 617.399 130.7C617.927 137.881 619.581 144.933 622.299 151.6C624.999 157.8 630.999 173.9 630.799 189.6C630.799 189.839 630.894 190.068 631.063 190.237C631.232 190.405 631.461 190.5 631.699 190.5Z" fill="black"/>
<path d="M689.499 346.5C689.143 345.972 688.668 345.534 688.112 345.222C687.557 344.91 686.936 344.731 686.299 344.7C686.899 341.1 686.199 338.1 681.499 337C676.073 335.83 670.444 336.001 665.099 337.5C655.899 313.9 637.699 251.7 624.999 206.3L583.799 197.9C583.399 209.2 590.799 234.1 596.199 255.5C601.599 276.9 613.499 321.7 616.799 337.9C618.799 347.7 621.699 359.4 621.699 359.4H659.899C671.099 359.4 685.499 355 688.299 352.8C691.099 350.6 690.499 348.3 689.499 346.5Z" fill="#2331B5"/>
<path d="M628.199 336.3C616.399 299.1 599.199 249.1 588.699 198.3" stroke="#3442D9" stroke-width="2" stroke-miterlimit="10"/>
<path d="M608.599 192.1C608.799 189.2 604.799 178.3 599.999 170.4C595.199 162.5 592.799 156.9 588.299 159.5C583.799 162.1 573.299 168.9 573.299 168.9C573.299 168.9 581.399 157.8 585.899 151.1C595.599 136.5 592.199 116.4 575.499 114.8C561.799 122.4 559.699 128.9 546.699 151.8C533.699 174.7 525.999 199.1 539.999 209.2C553.999 219.3 567.499 212.3 592.699 201.2C603.599 196.5 608.499 195.1 608.599 192.1Z" fill="#2331B5"/>
<path d="M592.899 199.7C590.099 198.4 587.599 194.2 584.599 185.6C579.599 171.1 578.299 166.7 581.399 163.7L579.499 164.9C579.05 165.171 578.676 165.552 578.414 166.006C578.151 166.461 578.009 166.975 577.999 167.5C577.899 171.3 579.799 176.9 582.999 186.2C584.999 192 586.799 195.9 588.699 198.3C589.422 199.316 590.475 200.05 591.678 200.379C592.881 200.707 594.161 200.608 595.299 200.1C594.478 200.18 593.65 200.042 592.899 199.7Z" fill="#3442D9"/>
<path d="M599.999 170.4C595.299 162.5 592.799 156.9 588.299 159.5C583.799 162.1 560.799 176.6 560.799 176.6" stroke="black" stroke-width="2" stroke-miterlimit="10" stroke-linecap="round"/>
<path d="M651.699 112.9C648.611 92.1183 647.439 71.0965 648.199 50.1001C648.222 49.4297 648.087 48.7634 647.806 48.1543C647.525 47.5453 647.105 47.0105 646.58 46.5926C646.055 46.1748 645.44 45.8855 644.784 45.7479C644.127 45.6103 643.448 45.6282 642.799 45.8002L617.899 52.8002" stroke="#66BCFF" stroke-width="4" stroke-miterlimit="10" stroke-linecap="round"/>
<path d="M635.699 114.6C638.099 119.2 642.399 127.4 643.299 130.1C643.599 134.3 643.399 141.5 643.399 143.7C643.41 143.904 643.483 144.099 643.608 144.26C643.733 144.42 643.905 144.539 644.099 144.6C650.899 145.6 653.799 145.7 656.599 145.4C659.399 145.1 663.299 143.8 665.999 143C666.286 142.888 666.519 142.669 666.649 142.39C666.78 142.111 666.797 141.792 666.699 141.5C664.199 133.3 662.499 127.4 662.499 127.4C661.999 117.2 661.899 109.1 661.899 106.4C661.899 106.135 661.794 105.881 661.606 105.693C661.419 105.505 661.165 105.4 660.899 105.4C651.599 104.8 648.399 104.8 644.999 105C641.599 105.2 640.499 107.2 635.799 112.8C635.59 113.049 635.467 113.359 635.449 113.683C635.431 114.008 635.519 114.33 635.699 114.6Z" fill="white"/>
<path d="M665.699 142.2C665.699 142.2 666.799 142.6 665.999 143C666.286 142.888 666.519 142.669 666.649 142.39C666.78 142.111 666.797 141.792 666.699 141.5C664.199 133.3 662.499 127.4 662.499 127.4C661.999 117.2 661.899 109.1 661.899 106.4C661.899 106.135 661.794 105.881 661.606 105.693C661.419 105.505 661.165 105.4 660.899 105.4C651.599 104.8 648.399 104.8 644.999 105C644.276 105.049 643.567 105.218 642.899 105.5L651.699 124.1L651.099 141.2L665.699 142.2Z" fill="#FFE75C"/>
<path d="M652.199 141.7C653.899 147.8 655.399 152.1 659.199 152.9C662.999 153.7 667.499 149.8 673.299 144C679.099 138.2 677.099 133.3 674.599 128.7C672.099 124.1 671.699 118.3 668.599 115.9C664.762 113.078 660.639 110.665 656.299 108.7C652.799 107.2 650.699 107.2 645.399 113.2C640.099 119.2 636.999 122.7 637.899 125.1C638.799 127.5 640.299 130.1 640.299 130.1C637.899 132.5 637.899 134.5 638.899 137C639.899 139.5 640.299 141.8 645.399 141.8L652.199 141.7Z" fill="#FF78B9"/>
<path d="M640.499 129L654.499 115.8" stroke="black" stroke-width="2" stroke-miterlimit="10" stroke-linecap="round"/>
<path d="M653.299 134.2C650.155 136.184 646.881 137.954 643.499 139.5C643.399 141.4 643.399 142.9 643.399 143.7C643.41 143.904 643.483 144.099 643.608 144.26C643.734 144.421 643.905 144.539 644.099 144.6C650.899 145.6 653.799 145.7 656.599 145.4C659.399 145.1 663.299 143.8 665.999 143C666.286 142.888 666.519 142.669 666.649 142.39C666.78 142.111 666.797 141.792 666.699 141.5L666.099 139.5C661.636 138.252 657.338 136.473 653.299 134.2Z" fill="white"/>
<path d="M666.099 139.5C661.636 138.252 657.338 136.473 653.299 134.2L651.299 135.5L651.099 141C651.124 141.069 651.164 141.132 651.216 141.184C651.268 141.235 651.33 141.275 651.399 141.3L665.699 142.2C665.699 142.2 666.799 142.6 665.999 143C666.298 142.892 666.547 142.679 666.699 142.4C666.699 142.3 666.799 142.1 666.799 142C666.815 141.827 666.78 141.654 666.699 141.5L666.099 139.6V139.5Z" fill="#FFE75C"/>
<path d="M591.799 162C594.945 158.337 597.264 154.04 598.599 149.4C599.599 146.4 600.699 142.1 601.099 140.5C601.499 138.9 603.399 138 605.699 138.5C607.999 139 608.999 139.4 608.599 143.5C608.199 147.6 607.299 157.3 607.299 157.3L591.799 162Z" fill="#FF78B9"/>
<path d="M637.799 164.4C636.299 160.3 635.599 158.2 634.299 156.5C632.999 154.8 631.799 154.5 625.999 154.2C623.699 154.1 619.299 154.2 616.399 154.3C622.099 152.8 628.199 151.5 629.499 151.1C630.799 150.7 633.399 150.3 632.499 147.8C631.599 145.3 630.799 144.7 629.399 144.7C625.811 144.631 622.225 144.933 618.699 145.6C613.554 146.608 608.503 148.046 603.599 149.9C600.699 151.1 596.999 156.5 591.799 162C594.099 170.1 599.599 182.5 605.199 188.4C612.599 185.5 616.999 179.1 618.799 176.7C628.099 175.1 631.299 176.1 636.499 176.8C639.699 177.2 639.999 174.9 640.199 173.8C640.399 172.7 639.099 168.2 637.799 164.4Z" fill="#FF78B9"/>
<path d="M561.799 58.3001C561.499 62.5001 562.899 66.0001 564.899 66.2001C566.899 66.4001 567.899 64.8001 567.999 60.9001C568.045 59.2516 568.246 57.6111 568.599 56.0001C569.299 52.5001 567.799 51.2001 566.099 51.1001C564.399 51.0001 562.099 54.2001 561.799 58.3001Z" fill="black"/>
<path d="M596.099 8.90013C598.174 8.46917 600.335 8.81049 602.177 9.86C604.018 10.9095 605.413 12.595 606.099 14.6001C607.599 19.3001 608.899 26.4001 600.899 27.7001C597.499 28.2001 593.999 26.7001 588.599 22.5001C584.699 19.4001 580.499 18.3001 571.399 23.0001C566.499 19.6001 568.899 10.9001 582.199 15.3001C576.399 7.80013 578.099 2.60013 582.299 1.10013C586.499 -0.399871 592.799 0.400132 596.099 8.90013Z" fill="#2A39D4"/>
<path d="M596.099 23.3001C593.199 19.7001 590.799 14.9001 588.799 10.8001C586.799 6.70013 584.799 2.40013 582.599 1.10013H582.299C581.513 1.37478 580.796 1.81853 580.199 2.40013L580.899 2.20012C582.799 2.40012 584.899 6.80012 587.199 11.5001C589.499 16.2001 591.699 20.6001 594.699 24.4001C595.707 25.5928 596.848 26.6664 598.099 27.6001C599.021 27.7828 599.967 27.8165 600.899 27.7001H600.999C599.157 26.484 597.506 25.0012 596.099 23.3001Z" fill="black"/>
<path d="M606.199 24.7001C605.77 25.3286 605.228 25.8712 604.599 26.3001C604.125 19.6612 601.16 13.4465 596.299 8.90014C597.052 8.7161 597.833 8.68211 598.599 8.80013C602.784 13.1398 605.45 18.7182 606.199 24.7001Z" fill="black"/>
<path d="M616.399 335.7C616.499 336.5 616.699 337.2 616.799 337.9C618.799 347.7 621.699 359.4 621.699 359.4H659.899C671.099 359.4 685.499 355 688.299 352.8C691.099 350.6 690.499 348.3 689.499 346.5C689.142 345.972 688.668 345.534 688.112 345.222C687.557 344.909 686.936 344.731 686.299 344.7C686.899 341.1 686.199 338.1 681.499 337C676.073 335.83 670.444 336.001 665.099 337.5C663.699 333.8 661.999 329.2 660.199 323.9C643.399 323.6 626.299 322.2 616.399 335.7Z" fill="#45AAF7"/>
<path d="M616.399 335.7C616.499 336.5 616.699 337.2 616.799 337.9C618.799 347.7 621.699 359.4 621.699 359.4H659.899C671.099 359.4 685.499 355 688.299 352.8C691.099 350.6 690.499 348.3 689.499 346.5C689.142 345.972 688.668 345.534 688.112 345.222C687.557 344.909 686.936 344.731 686.299 344.7C686.899 341.1 686.199 338.1 681.499 337C676.073 335.83 670.444 336.001 665.099 337.5C663.699 333.8 661.999 329.2 660.199 323.9C643.399 323.6 626.299 322.2 616.399 335.7Z" fill="#45AAF7"/>
<path d="M665.099 337.5L663.799 337.8H663.599L652.699 340C652.524 339.768 652.42 339.49 652.399 339.2C651.577 336.372 651.14 333.445 651.099 330.5C650.999 324.4 647.799 323.8 642.299 323.9L642.599 323.2C643.338 321.262 644.656 319.598 646.374 318.435C648.091 317.273 650.125 316.667 652.199 316.7H661.299C661.832 316.707 662.356 316.83 662.837 317.058C663.318 317.287 663.744 317.616 664.085 318.025C664.427 318.433 664.677 318.91 664.817 319.423C664.958 319.937 664.986 320.475 664.899 321C663.799 325.7 663.499 331.5 664.599 335.8C664.706 336.383 664.873 336.953 665.099 337.5Z" fill="#8CD9FF"/>
<path d="M626.499 343.6C625.141 343.144 623.704 342.971 622.277 343.092C620.849 343.212 619.462 343.623 618.199 344.3C618.285 344.91 618.418 345.512 618.599 346.1C619.676 345.426 620.888 344.996 622.15 344.841C623.411 344.685 624.691 344.808 625.899 345.2C631.499 347.1 635.599 354.4 637.699 359.4H639.599C637.399 354.2 632.999 345.8 626.499 343.6Z" fill="#5865F2"/>
<path d="M689.199 351.9L688.299 352.8C685.499 355 671.099 359.4 659.899 359.4H637.099V359C663.299 358.6 681.099 347.7 687.199 347.7C689.199 347.7 690.399 350.7 689.199 351.9Z" fill="black"/>
<path d="M664.099 138.1C665.524 140.012 667.578 141.358 669.899 141.9" stroke="black" stroke-width="2" stroke-miterlimit="10" stroke-linecap="round"/>
<path d="M620.199 130.4C619.204 130.405 618.243 130.039 617.503 129.373C616.764 128.708 616.299 127.79 616.199 126.8L615.399 117.7H617.199L622.499 126.4C622.723 126.806 622.838 127.263 622.833 127.727C622.829 128.19 622.705 128.645 622.474 129.047C622.243 129.449 621.912 129.784 621.514 130.021C621.115 130.258 620.663 130.389 620.199 130.4Z" fill="#FFE75C"/>
<path d="M575.499 114.8H585.299" stroke="black" stroke-width="2" stroke-miterlimit="10" stroke-linecap="round"/>
<path d="M631.199 228.4C629.999 224.1 628.199 218 628.199 218C636.24 212.757 643.894 206.942 651.099 200.6C651.099 200.6 642.799 219 639.099 236.1L631.199 228.4Z" fill="black"/>
<path d="M653.599 249.3L663.299 248.9" stroke="black" stroke-width="2" stroke-miterlimit="10" stroke-linecap="round"/>
<path d="M665.099 337.5L663.799 337.8H663.599C659.254 338.826 654.979 340.129 650.799 341.7H650.499C650.322 341.69 650.151 341.628 650.008 341.521C649.866 341.415 649.758 341.268 649.699 341.1C649.652 340.996 649.627 340.883 649.627 340.768C649.627 340.654 649.651 340.54 649.698 340.436C649.746 340.332 649.815 340.239 649.901 340.164C649.988 340.088 650.089 340.033 650.199 340L652.399 339.1C656.391 337.712 660.465 336.577 664.599 335.7C664.698 336.317 664.866 336.921 665.099 337.5Z" fill="black"/>
<path d="M638.099 165.2L637.799 164.4L637.399 163.4C628.699 162.5 619.599 161.9 610.699 162.8C610.581 162.813 610.467 162.85 610.362 162.907C610.258 162.964 610.166 163.042 610.092 163.134C610.018 163.227 609.963 163.334 609.93 163.448C609.897 163.562 609.886 163.682 609.899 163.8C609.912 163.918 609.949 164.033 610.006 164.137C610.064 164.241 610.141 164.333 610.234 164.407C610.327 164.482 610.433 164.537 610.547 164.57C610.661 164.603 610.781 164.613 610.899 164.6C619.899 163.6 629.199 164.3 638.099 165.2Z" fill="black"/>
<path d="M570.199 53.8001L564.399 56.6001L572.499 60.3001L570.199 53.8001Z" fill="white"/>
<path d="M689.199 351.9C689.799 351.1 689.099 350.6 687.199 350.6C681.099 350.6 663.299 359 637.099 359.4H621.699L620.599 355C632.599 355 645.699 354.8 657.899 350.9C670.099 347 678.199 343.7 686.299 344.7C686.936 344.731 687.557 344.909 688.112 345.222C688.668 345.534 689.142 345.972 689.499 346.5C690.041 347.311 690.305 348.276 690.251 349.25C690.197 350.224 689.828 351.154 689.199 351.9Z" fill="white"/>
<path d="M657.899 319.9H659.099C661.899 319.9 663.799 320 664.399 320.7C664.999 321.4 664.699 321.7 664.499 322.7C664.585 322.123 664.719 321.555 664.899 321C664.986 320.378 664.824 319.747 664.451 319.242C664.077 318.737 663.52 318.399 662.899 318.3H657.899C653.299 318.3 648.099 318.3 645.399 324.2C646.013 324.184 646.624 324.286 647.199 324.5C649.499 319.8 653.599 319.9 657.899 319.9Z" fill="#3442D9"/>
<path d="M620.199 48.3001C618.899 50.4001 616.599 52.8001 611.499 53.8001C618.499 53.0001 621.499 56.9001 621.499 56.9001" stroke="black" stroke-width="2" stroke-linecap="round" stroke-linejoin="round"/>
<path d="M489.9 359.4H423.4V345.4C423.389 341.782 424.788 338.303 427.3 335.7L433.9 329.3C434.746 328.503 435.421 327.542 435.885 326.477C436.35 325.411 436.593 324.262 436.6 323.1V307.1C436.608 303.896 437.699 300.789 439.696 298.284C441.693 295.778 444.479 294.022 447.6 293.3C458.3 290.6 469.4 290.1 478.5 291.9C481.721 292.567 484.613 294.323 486.689 296.874C488.766 299.424 489.9 302.611 489.9 305.9V359.4Z" fill="#45AAF7"/>
<path d="M440.5 332.6H440.9C441.057 332.609 441.213 332.577 441.354 332.506C441.494 332.436 441.613 332.331 441.7 332.2C444.7 326.4 444.7 317.4 444.7 307.8C444.7 298.2 445.6 294.6 452 292.2L448.6 292.9C447.723 293.098 446.901 293.488 446.192 294.041C445.484 294.594 444.906 295.297 444.5 296.1C443.1 298.9 442.9 302.6 442.9 307.8C442.9 317.2 442.9 326 440.1 331.4C440.033 331.501 439.989 331.617 439.972 331.738C439.956 331.859 439.968 331.982 440.006 332.098C440.045 332.214 440.109 332.319 440.195 332.406C440.281 332.493 440.385 332.56 440.5 332.6Z" fill="#BAE8FF"/>
<path d="M489.901 305.9C489.895 302.597 488.747 299.398 486.651 296.846C484.554 294.294 481.639 292.547 478.401 291.9C473.053 290.98 467.617 290.678 462.2 291C449.4 291.9 451.301 300 451.301 311.8V321.9C451.306 325.275 450.409 328.59 448.7 331.5C446.8 334.6 446.301 338.4 446.301 345.8V359.4H489.901V305.9Z" fill="#3F99F2"/>
<path d="M473.9 343.3C473.3 325.9 465.4 310.7 457.4 296.2C457.196 295.912 457.076 295.573 457.053 295.221C457.031 294.868 457.107 294.517 457.273 294.205C457.439 293.894 457.689 293.635 457.994 293.457C458.299 293.28 458.648 293.191 459 293.2H461C461.42 293.223 461.828 293.343 462.192 293.552C462.557 293.76 462.868 294.051 463.1 294.4C471.3 309.5 479.9 325.2 480.5 343.3C480.8 352.4 473.9 359.4 464.7 359.4H458.1C467.3 359.4 474.2 352.4 473.9 343.3Z" fill="#3543DE"/>
<path d="M492.7 343.3C492.1 325.9 484.1 310.7 476.2 296.2C475.996 295.912 475.876 295.573 475.853 295.221C475.83 294.868 475.907 294.517 476.073 294.205C476.239 293.894 476.488 293.635 476.794 293.457C477.099 293.28 477.448 293.191 477.801 293.2H479.801C480.208 293.214 480.606 293.331 480.956 293.541C481.306 293.751 481.597 294.046 481.801 294.4C490.101 309.5 498.601 325.2 499.301 343.3C499.398 345.415 499.057 347.527 498.302 349.504C497.546 351.481 496.391 353.281 494.908 354.792C493.425 356.303 491.647 357.492 489.684 358.285C487.722 359.078 485.617 359.457 483.5 359.4H476.9C479.017 359.457 481.122 359.078 483.084 358.285C485.047 357.492 486.825 356.303 488.308 354.792C489.791 353.281 490.946 351.481 491.702 349.504C492.458 347.527 492.797 345.415 492.7 343.3Z" fill="#3543DE"/>
<path d="M476.4 316.3L496.7 319.8C498.3 324 499.1 326.8 499.3 329.5C499.5 332.2 496.9 333.7 492.9 335.3C490.029 336.499 487.389 338.192 485.1 340.3C479.3 345.4 474.4 348.5 465.9 348.5C464.2 348.5 463 348.6 462 347.5C460.938 346.304 460.31 344.784 460.22 343.187C460.129 341.59 460.58 340.009 461.5 338.7C462.528 337.305 463.778 336.089 465.2 335.1C468.222 333.14 470.775 330.537 472.676 327.478C474.578 324.419 475.781 320.978 476.2 317.4C476.3 316.9 476.3 316.6 476.4 316.3Z" fill="#DE3A93"/>
<path d="M492.901 335.3C494.587 334.669 496.17 333.793 497.6 332.7C499.5 330.9 498.7 329.2 494.6 329.3C490.5 329.4 486.2 332.6 477.6 337.9C469 343.2 456.201 348.5 465.901 348.5C475.601 348.5 479.3 345.4 485.1 340.3C487.389 338.192 490.029 336.499 492.901 335.3Z" fill="black"/>
<path d="M474.2 310.2C472.7 310.5 472.9 312.2 473.7 313.9C472.1 316.9 473.101 318.1 475.901 319.3C481.558 321.224 487.534 322.038 493.501 321.7C499.601 321.1 499.2 319.1 498.6 317.1C500.7 315.3 500.401 313.2 498.301 312.3C496.201 311.4 484.9 307.9 474.2 310.2Z" fill="#66BCFF"/>
<path d="M519.301 205.8H493.1V220.09H519.301V205.8Z" fill="white"/>
<path d="M572.6 206.1C573.101 208.132 573.133 210.252 572.693 212.298C572.254 214.345 571.354 216.264 570.063 217.912C568.772 219.559 567.123 220.892 565.241 221.808C563.359 222.724 561.294 223.2 559.2 223.2H530.6L517.2 230.7V230.3C511.1 230.3 507.601 228.3 510.301 205.9C509.101 199.6 503.501 174.8 500.401 156.3C497.601 139.4 503.901 133.2 521.301 123.4C528.701 101.4 547.9 102.7 551.6 115.9C555.3 129.1 567.5 185.2 572.6 206.1Z" fill="#66BCFF"/>
<path d="M518.901 237.8L514.301 238.6C514.076 238.644 513.863 238.737 513.676 238.871C513.49 239.004 513.335 239.177 513.221 239.376C513.107 239.575 513.037 239.796 513.017 240.025C512.996 240.253 513.024 240.484 513.101 240.7L514.101 243.2C500.201 244 488.101 245.2 483.301 249.4C478.501 253.6 478.501 260 476.301 279.1C474.101 298.2 470.501 309.6 476.301 312.2C482.189 314.728 488.63 315.693 495.001 315C501.401 314.4 502.001 311.1 503.301 301.2C504.601 291.3 507.7 269.3 507.7 269.3H558.2C570.7 269.3 578.101 261.1 579.801 254.1C581.001 249.1 579.401 237.3 576.501 223.3H530.601L517.2 230.8L518.2 235.1L518.901 237.8Z" fill="#3442D9"/>
<path d="M561 223.5C566 248.5 567 267.3 548 275.9" stroke="#2330BF" stroke-width="2" stroke-miterlimit="10"/>
<path d="M521.7 210.9C521.7 210.9 523.8 223.2 526.7 237.8C530 254.6 529.1 254 506.2 255.5C486.1 256.8 487.9 255.8 483.7 278.7C482.1 287.7 479.3 304 480.1 313C480.1 313 479.2 318.3 479.4 319.4" stroke="#2467D4" stroke-width="2" stroke-linecap="round" stroke-linejoin="round"/>
<path d="M507.7 269.3C496.6 267.6 491.2 257.6 491.2 257.6" stroke="black" stroke-width="2" stroke-linecap="round" stroke-linejoin="round"/>
<path d="M507.7 269.3C505.429 267.962 503.445 266.185 501.866 264.073C500.287 261.962 499.143 259.558 498.5 257" stroke="black" stroke-width="2" stroke-linecap="round" stroke-linejoin="round"/>
<path d="M572.6 206.1C570 195.3 565.4 175.3 561.1 156.6L538.7 154.9L521.401 167.1L511.401 180.5L506.301 187.4C508.101 196 509.6 203 510.2 206C507.5 228.4 511 230.4 517.1 230.4L534.801 222.9L575.801 220C574.801 215.5 573.7 210.8 572.6 206.1Z" fill="#EB459F"/>
<path d="M526.77 194.842C528.031 187.382 527.377 181.05 525.307 180.7C523.238 180.35 520.538 186.114 519.276 193.575C518.014 201.035 518.669 207.366 520.738 207.716C522.807 208.066 525.508 202.302 526.77 194.842Z" fill="black"/>
<path d="M513.7 176.3C514.7 174.5 515.801 172.7 516.901 171.1C528.201 154.8 538.8 150.4 549 150.4H561.7C561.89 150.405 562.075 150.455 562.242 150.545C562.408 150.635 562.551 150.764 562.658 150.92C562.765 151.076 562.834 151.255 562.859 151.443C562.884 151.631 562.864 151.822 562.801 152L561.1 156.6C541.6 156.6 534.7 156 518.5 173L511.401 180.5L513.7 176.3Z" fill="#D11583"/>
<path d="M575.801 220H542.7C535.3 220 526.2 219.6 517.1 230.4L518.2 235.1C523.5 230 528.4 227.8 539 227.8H577.401L575.801 220Z" fill="black"/>
<path d="M518.5 173.6C511.8 174.8 506.5 178.3 503.5 184.5C502.648 186.22 501.418 187.724 499.9 188.9L481.9 202C479.877 203.436 478.467 205.579 477.948 208.005C477.43 210.431 477.841 212.963 479.1 215.1C479.978 216.6 481.235 217.842 482.744 218.702C484.254 219.562 485.963 220.01 487.7 220H495.2C510.8 211.3 518 205.4 521.7 202C525.4 198.6 529.5 192.5 528.8 185.5C528.1 178.5 526.1 172.2 518.5 173.6Z" fill="white"/>
<path d="M524.1 121.9C521.7 117.9 518.5 112.6 517.3 110.1C516.1 107.6 513.2 108.2 517.3 119.4C507.3 115.6 505.2 117 504.7 118.4C504.2 119.8 506.4 120.5 510.6 122.9C514.8 125.3 519.3 128.2 519.3 128.2L524.1 121.9Z" fill="#66BCFF"/>
<path d="M534.5 122.2C536.2 120.1 536.801 117.8 535.801 117C534.801 116.2 533.7 116.6 532.2 118.6C531.553 119.413 530.852 120.182 530.1 120.9C528.4 122.5 528.8 123.7 529.6 124.4C530.4 125.1 532.8 124.3 534.5 122.2Z" fill="black"/>
<path d="M551.5 116C551.5 116 539.6 110.6 534.5 107.3C529.4 104 526.8 99.1 529.1 97.8C531.4 96.5 535.801 99.6 538.901 103.6C538.801 96.5 540.001 95.0001 541.901 94.9001C543.801 94.8001 544 97.6 544.1 101.6C544.2 105.6 544.901 107.2 547.901 109.9C549.697 111.517 550.953 113.646 551.5 116Z" fill="#3442D9"/>
<path d="M507.801 149.2C505.001 149.2 502.601 146.8 504.801 142.6C507.001 138.4 514.2 134.2 517.7 132.6C521.2 131 522.801 132.6 522.901 133.8C523.001 135 522.5 136.8 520 140C517.5 143.2 512.901 149.2 507.801 149.2Z" fill="white"/>
<path d="M510 148.9L508.301 149.2L505.901 141L507.301 139.5L510 148.9Z" fill="#8CD9FF"/>
<path d="M516.2 144.5L514.801 145.9L512 135.8L513.5 134.8L516.2 144.5Z" fill="#8CD9FF"/>
<path d="M521.801 137.5L520.5 139.3L518.5 132.3L520.2 132L521.801 137.5Z" fill="#8CD9FF"/>
<path d="M519.6 131.1C521.451 131.984 523.355 132.752 525.301 133.4" stroke="black" stroke-width="2" stroke-linecap="round" stroke-linejoin="round"/>
<path d="M517.1 242.5L528.1 255.9" stroke="black" stroke-width="2" stroke-linecap="round" stroke-linejoin="round"/>
<path d="M525.7 238.5H521.801L520.6 233L519.5 227.9C520.513 226.907 521.582 225.972 522.7 225.1L524 230.7L525.7 238.5Z" fill="#3442D9"/>
<path d="M543 233.2H539.1L537.901 227.8L536.301 220.2H540.2L541.801 227.9L543 233.2Z" fill="#3442D9"/>
<path d="M574.901 233H571L569.801 227.8L568.2 220H572.1L573.7 227.8L574.901 233Z" fill="#3442D9"/>
<path d="M564.2 169.8C562.286 168.282 559.941 167.407 557.501 167.3C552.301 167.3 549.401 172.4 548.401 177.3C548.24 178.086 547.815 178.792 547.196 179.302C546.577 179.812 545.802 180.093 545.001 180.1H544.301C543.85 180.017 543.42 179.844 543.038 179.59C542.655 179.337 542.328 179.009 542.076 178.626C541.824 178.243 541.651 177.813 541.57 177.362C541.488 176.91 541.499 176.447 541.601 176C543.501 166.5 549.701 160.4 557.501 160.4C558.791 160.416 560.038 160.871 561.038 161.688C562.037 162.506 562.729 163.638 563.001 164.9L564.2 169.8Z" fill="white"/>
<path d="M572.6 206.1C572.821 206.994 572.857 207.924 572.707 208.832C572.557 209.741 572.225 210.61 571.729 211.386C571.233 212.162 570.585 212.829 569.824 213.347C569.063 213.865 568.204 214.224 567.301 214.4L564.801 214.6C559.101 214.6 553.2 211.2 548.6 205.3C548.325 204.932 548.124 204.514 548.01 204.069C547.896 203.623 547.871 203.16 547.936 202.705C548.001 202.25 548.155 201.812 548.389 201.417C548.623 201.021 548.933 200.676 549.301 200.4C549.663 200.111 550.081 199.899 550.528 199.777C550.975 199.656 551.443 199.627 551.902 199.692C552.361 199.758 552.801 199.916 553.197 200.159C553.592 200.401 553.934 200.721 554.2 201.1C557.4 205.2 561.301 207.7 564.801 207.7C568.301 207.7 570.401 205.7 571.901 203.1C572.101 204.2 572.4 205.2 572.6 206.1Z" fill="#2331B5"/>
<path d="M565.9 177.5C565.194 177.504 564.507 177.727 563.933 178.139C563.36 178.551 562.929 179.132 562.7 179.8L558.5 191.1C558.133 192.161 558.141 193.316 558.523 194.372C558.906 195.428 559.639 196.32 560.6 196.9C561.035 197.168 561.525 197.334 562.032 197.386C562.54 197.439 563.053 197.376 563.534 197.203C564.014 197.03 564.449 196.751 564.807 196.387C565.165 196.023 565.436 195.583 565.6 195.1L568.301 187.8C567.601 184.5 566.8 181.1 565.9 177.5Z" fill="#5865F2"/>
<path d="M560.6 196.9C559.639 196.32 558.906 195.428 558.523 194.372C558.141 193.316 558.133 192.161 558.5 191.1L559.7 188C559.901 187.459 560.217 186.968 560.625 186.56C561.034 186.153 561.526 185.839 562.067 185.639C562.609 185.44 563.187 185.36 563.763 185.405C564.338 185.45 564.897 185.619 565.4 185.9C566.223 186.381 566.853 187.132 567.181 188.027C567.509 188.921 567.516 189.901 567.2 190.8L565.6 195.1C565.436 195.583 565.165 196.023 564.807 196.387C564.449 196.751 564.014 197.03 563.534 197.203C563.053 197.376 562.54 197.439 562.032 197.386C561.525 197.334 561.035 197.168 560.6 196.9Z" fill="#FFE75C"/>
<path d="M507.6 212.9C504.398 215.126 500.8 216.721 497 217.6" stroke="#A3D7FF" stroke-width="2" stroke-linecap="round" stroke-linejoin="round"/>
<path d="M546.301 359.4H528.801C518.101 359.4 508.2 350.8 506.7 340.2C505.2 329.6 512.001 324 523.501 321.5L525.501 321C527.12 320.661 528.549 319.717 529.497 318.361C530.445 317.004 530.839 315.337 530.601 313.7C530.406 312.107 529.677 310.626 528.533 309.5C527.389 308.374 525.897 307.669 524.301 307.5L521.401 307.2C509.001 305.9 500.801 298.6 499.301 288C497.801 277.4 505.201 269.3 515.601 269.3H533.101C543.801 269.3 553.7 277.9 555.2 288.5L562.601 340.7C564.001 351 556.701 359.4 546.301 359.4Z" fill="#ADB4FF"/>
<path d="M566.6 359.4H549.1C538.4 359.4 528.5 350.8 527 340.2C526.391 336.299 527.235 332.311 529.374 328.992C531.513 325.673 534.796 323.256 538.6 322.2C540.004 321.823 541.22 320.941 542.013 319.723C542.807 318.505 543.123 317.037 542.9 315.6L542.4 311.8C542.209 310.591 541.658 309.468 540.82 308.576C539.982 307.685 538.895 307.066 537.7 306.8C528.6 304.9 520.9 297.2 519.6 288C518.3 278.8 525.5 269.3 535.9 269.3H553.4C564.1 269.3 574 277.9 575.5 288.5L582.9 340.7C584.3 351 577 359.4 566.6 359.4Z" fill="white"/>
<path d="M562.2 286.9C562.273 287.4 562.236 287.909 562.093 288.393C561.949 288.878 561.703 289.325 561.37 289.705C561.038 290.085 560.627 290.389 560.166 290.595C559.705 290.801 559.205 290.905 558.7 290.9H540.301C539.189 290.869 538.123 290.454 537.284 289.724C536.445 288.994 535.885 287.996 535.7 286.9V286.3C535.609 285.811 535.63 285.307 535.761 284.827C535.892 284.347 536.13 283.903 536.457 283.528C536.784 283.153 537.192 282.856 537.65 282.661C538.107 282.466 538.603 282.377 539.1 282.4H557.6C558.697 282.426 559.752 282.828 560.589 283.537C561.426 284.247 561.995 285.222 562.2 286.3V286.9Z" fill="#66BCFF"/>
<path d="M554.2 294.3C554.289 294.794 554.267 295.302 554.137 295.786C554.006 296.271 553.769 296.72 553.444 297.103C553.119 297.485 552.714 297.791 552.257 297.998C551.8 298.205 551.302 298.308 550.801 298.3H550.301C549.189 298.269 548.123 297.854 547.284 297.124C546.445 296.395 545.885 295.396 545.7 294.3L543.501 278.9C543.426 278.405 543.463 277.9 543.607 277.42C543.75 276.941 543.998 276.499 544.333 276.126C544.667 275.754 545.079 275.46 545.541 275.265C546.002 275.07 546.5 274.98 547.001 275H547.501C548.598 275.026 549.653 275.428 550.49 276.137C551.327 276.847 551.895 277.822 552.1 278.9L554.2 294.3Z" fill="#66BCFF"/>
<path d="M556.501 317.5C556.528 317.705 556.514 317.913 556.457 318.112C556.401 318.311 556.304 318.496 556.172 318.656C556.041 318.816 555.878 318.946 555.693 319.04C555.509 319.134 555.307 319.188 555.1 319.2H554.801C554.341 319.164 553.906 318.979 553.563 318.671C553.22 318.364 552.987 317.953 552.901 317.5L552.001 311.1C551.97 310.891 551.986 310.679 552.049 310.477C552.112 310.276 552.22 310.092 552.364 309.938C552.508 309.784 552.685 309.665 552.882 309.589C553.079 309.513 553.29 309.483 553.501 309.5H553.7C554.156 309.494 554.599 309.653 554.948 309.947C555.297 310.24 555.529 310.65 555.6 311.1L556.501 317.5Z" fill="#ADB4FF"/>
<path d="M556.1 337.7C555.003 337.674 553.949 337.272 553.112 336.563C552.275 335.853 551.706 334.878 551.501 333.8V333.2C551.409 332.711 551.43 332.207 551.561 331.727C551.692 331.247 551.93 330.803 552.257 330.428C552.584 330.053 552.992 329.756 553.45 329.561C553.907 329.366 554.403 329.277 554.901 329.3H555.401C556.484 329.321 557.528 329.709 558.363 330.399C559.198 331.088 559.775 332.041 560.001 333.1V333.8C560.075 334.295 560.038 334.8 559.894 335.28C559.751 335.759 559.503 336.201 559.168 336.574C558.834 336.946 558.422 337.24 557.96 337.435C557.499 337.63 557.001 337.72 556.501 337.7H556.1Z" fill="#66BCFF"/>
<path d="M558.7 352.6H558.2C557.098 352.593 556.033 352.198 555.192 351.485C554.352 350.772 553.788 349.786 553.6 348.7V347.8C553.558 347.32 553.617 346.837 553.775 346.382C553.933 345.928 554.186 345.511 554.517 345.162C554.848 344.812 555.249 344.536 555.695 344.353C556.14 344.17 556.619 344.084 557.1 344.1H557.6C558.684 344.121 559.727 344.509 560.563 345.198C561.398 345.888 561.975 346.84 562.2 347.9V348.6C562.291 349.103 562.267 349.619 562.131 350.111C561.995 350.603 561.749 351.058 561.413 351.442C561.077 351.827 560.659 352.13 560.189 352.331C559.719 352.531 559.211 352.623 558.7 352.6Z" fill="#FF78B9"/>
<path d="M556.6 337.7H556.1C555.003 337.674 553.949 337.272 553.112 336.563C552.275 335.853 551.706 334.878 551.501 333.8V333.2C551.409 332.711 551.43 332.207 551.561 331.727C551.692 331.247 551.93 330.803 552.257 330.428C552.584 330.053 552.992 329.756 553.45 329.561C553.907 329.366 554.403 329.277 554.901 329.3H555.401C556.484 329.321 557.528 329.709 558.363 330.399C559.198 331.088 559.775 332.041 560.001 333.1V333.8C560.073 334.287 560.039 334.783 559.901 335.255C559.763 335.727 559.524 336.164 559.2 336.534C558.877 336.905 558.477 337.201 558.028 337.403C557.58 337.604 557.092 337.705 556.6 337.7Z" fill="#5865F2"/>
<path d="M566.1 345.1C565.003 345.074 563.949 344.672 563.112 343.963C562.275 343.253 561.706 342.278 561.501 341.2V340.6C561.409 340.111 561.43 339.607 561.561 339.127C561.692 338.647 561.93 338.203 562.257 337.828C562.584 337.453 562.992 337.156 563.45 336.961C563.907 336.766 564.403 336.677 564.901 336.7H565.401C566.484 336.721 567.528 337.109 568.363 337.799C569.198 338.488 569.775 339.441 570.001 340.5V341.2C570.092 341.689 570.071 342.193 569.94 342.673C569.809 343.153 569.571 343.597 569.244 343.972C568.917 344.347 568.509 344.644 568.051 344.839C567.594 345.034 567.098 345.124 566.6 345.1H566.1Z" fill="#66BCFF"/>
<path d="M566.6 345.1H566.1C565.003 345.074 563.949 344.672 563.112 343.963C562.275 343.253 561.706 342.278 561.501 341.2V340.6C561.409 340.111 561.43 339.607 561.561 339.127C561.692 338.647 561.93 338.203 562.257 337.828C562.584 337.453 562.992 337.156 563.45 336.961C563.907 336.766 564.403 336.677 564.901 336.7H565.401C566.484 336.721 567.528 337.109 568.363 337.799C569.198 338.488 569.775 339.441 570.001 340.5V341.2C570.092 341.689 570.071 342.193 569.94 342.673C569.809 343.153 569.571 343.597 569.244 343.972C568.917 344.347 568.509 344.644 568.051 344.839C567.594 345.034 567.098 345.124 566.6 345.1Z" fill="#5865F2"/>
<path d="M548.7 345.3H548.1C547.001 345.265 545.948 344.846 545.126 344.115C544.304 343.384 543.764 342.388 543.6 341.3V340.4C543.542 339.926 543.588 339.444 543.734 338.989C543.88 338.534 544.123 338.117 544.446 337.765C544.769 337.413 545.165 337.136 545.606 336.952C546.047 336.768 546.523 336.682 547 336.7H547.6C548.68 336.749 549.712 337.16 550.528 337.868C551.345 338.576 551.899 339.538 552.1 340.6V341.2C552.206 341.701 552.197 342.22 552.074 342.717C551.951 343.214 551.717 343.677 551.391 344.071C551.064 344.465 550.652 344.781 550.186 344.993C549.72 345.206 549.212 345.311 548.7 345.3Z" fill="#FF78B9"/>
<path d="M386.4 339.4L376.7 334C384.314 321.461 392.697 309.404 401.8 297.9C383.9 304.4 365.1 312.5 344.3 312.5H309.5C307.4 308.2 306.8 303.8 306.8 297.2L349.3 281.7L365.4 285L365.9 289.6C381.3 285.7 397.2 281.2 408.7 278.5C423.2 275.1 428.1 282.4 419.7 294.6C403.5 318.2 386.4 339.4 386.4 339.4Z" fill="#29CC7A"/>
<path d="M319.1 293.2C319.1 301.7 319.1 307.7 323.2 311.1C324.186 311.995 325.468 312.493 326.8 312.5H331C320.8 310.8 320.8 305.3 320.9 293.2V292.4C320.9 292.3 320.8 292.2 320.8 292.1L319.1 292.7V293.2Z" fill="#15AD75"/>
<path d="M386.4 334.9C402 314.3 412 300 416.2 293.3C420.4 286.6 421.8 282.4 400.6 289.6C379.4 296.8 363.3 303.3 358.6 301.5C353.9 299.7 355.6 294.9 355.9 286.4" stroke="#15AD75" stroke-width="2" stroke-linecap="round" stroke-linejoin="round"/>
<path d="M324 237.8C316.831 226.765 310.927 214.957 306.4 202.6C305.76 200.545 305.616 198.368 305.981 196.247C306.346 194.126 307.21 192.122 308.5 190.4C315.8 181.6 325.4 176.9 338.2 174.7C339.593 174.547 340.992 174.941 342.1 175.8C357.3 189.1 361.8 204.1 364.4 218.7C364.466 219.543 364.317 220.388 363.967 221.158C363.617 221.927 363.078 222.595 362.4 223.1C354.9 227.7 350.9 229.1 350.9 229.1L352.4 240.2L324 237.8Z" fill="#FFE75C"/>
<path d="M338.5 200.5C345.993 201.196 353.44 202.331 360.8 203.9L364.9 205C365.051 205.042 365.189 205.123 365.299 205.234C365.41 205.345 365.489 205.484 365.529 205.635C365.57 205.787 365.57 205.947 365.53 206.098C365.49 206.25 365.41 206.388 365.3 206.5L364.4 207.3L366 213.5C366.517 215.396 366.385 217.412 365.624 219.224C364.863 221.036 363.516 222.542 361.8 223.5L358.1 225.6L338.5 200.5Z" fill="#FFE75C"/>
<path d="M341.705 207.868C343.608 206.541 343.229 202.711 340.859 199.314C338.489 195.916 335.026 194.238 333.123 195.565C331.221 196.893 331.6 200.722 333.97 204.12C336.34 207.517 339.803 209.195 341.705 207.868Z" fill="#FF78B9"/>
<path d="M353.5 194C352.3 192.9 351 192.6 350.5 193.1C350 193.6 350.3 194.4 351.4 195.2L352.7 196.5C353.6 197.5 354.3 197.3 354.7 196.8C355.1 196.3 354.7 195 353.5 194Z" fill="black"/>
<path d="M313.8 185.1C312.2 169 313.8 163.6 317.2 158.9C320.6 154.2 322.6 155.6 322 161.8C321.636 166.661 321.67 171.544 322.1 176.4C325.058 168.824 329.36 161.846 334.8 155.8C336.412 153.846 338.571 152.418 341 151.7C343.4 151.1 344.7 152.5 344 154.8C342.8 158.7 339.9 164.9 332.1 176L332.9 180.4L313.8 185.1Z" fill="#FFE75C"/>
<path d="M360.5 247.3C369 250.2 363 276.8 363 276.8L364.2 277.7C365.182 278.451 365.876 279.516 366.167 280.717C366.459 281.918 366.329 283.183 365.8 284.3L365.4 285C359.5 285 355.6 285.5 347.6 291.2C339.6 296.9 334.5 297.2 326.3 297.2H306.8V290.6C299.5 287.7 298.9 284.2 301.7 279.7C303.2 277.1 305.6 273.5 307.4 270.8C308.091 269.768 308.57 268.609 308.811 267.39C309.051 266.171 309.047 264.917 308.8 263.7C307.2 255.1 308.5 250 308.5 250L329.7 244.3L356.6 243.2L360.5 247.3Z" fill="#2331B5"/>
<path d="M359.873 271.794C362.436 271.116 363.336 266.109 361.883 260.609C360.43 255.109 357.174 251.2 354.611 251.877C352.048 252.554 351.148 257.562 352.601 263.061C354.054 268.561 357.31 272.471 359.873 271.794Z" fill="black"/>
<path d="M372.9 334.6C375.3 332.1 380.5 327.9 380.5 327.9C383.8 327.9 388.8 328.5 391 337.6L393.7 348.3C404 350.2 404.1 353.1 402.7 356.9V358.6C402.7 358.812 402.616 359.016 402.466 359.166C402.316 359.316 402.112 359.4 401.9 359.4H384.7L372.9 334.6Z" fill="white"/>
<path d="M401.9 359.4C402.112 359.4 402.316 359.316 402.466 359.166C402.616 359.016 402.7 358.812 402.7 358.6V356.9C395.9 356.9 390.9 357.6 388.4 353.2C385.717 347.876 383.347 342.4 381.3 336.8C380.4 334.2 378.5 331.1 375.6 332L372.9 334.6L384.7 359.4H401.9Z" fill="#FF78B9"/>
<path d="M394.6 359.4C392.791 359.428 391.005 358.992 389.412 358.134C387.819 357.277 386.473 356.026 385.5 354.5C381.8 348.9 379.5 342.2 378.1 338.1C376.7 334 372.2 332.4 371.8 337.6C371.4 342.8 374.1 346.8 378.3 357.2C378.532 357.858 378.967 358.425 379.542 358.821C380.117 359.216 380.802 359.419 381.5 359.4H394.6Z" fill="black"/>
<path d="M360.5 247.3L376.3 252.7C377.9 230.6 384.6 224.3 392.4 206.7C398 194.2 400.6 188.5 401.7 186.3C401.86 185.933 402.127 185.622 402.466 185.408C402.804 185.194 403.2 185.087 403.6 185.1H404.2C404.507 185.099 404.81 185.162 405.091 185.284C405.372 185.407 405.624 185.587 405.831 185.813C406.038 186.039 406.196 186.306 406.294 186.597C406.392 186.887 406.428 187.195 406.4 187.5C405.405 193.407 403.831 199.202 401.7 204.8C406.4 201.6 408.5 201.6 410.7 204.9C416.1 202.1 418.1 202 420 206.2C421.9 210.4 421.6 211.2 420.6 214.6C419.6 218 418.1 218.3 415.8 218.3C415.8 241.5 414.3 250.2 403.4 265.8C393.7 279.7 393.2 278 380 273.8C372.4 271.4 364.9 268.7 360 266.8C357.161 265.766 354.775 263.768 353.258 261.155C351.741 258.541 351.19 255.478 351.7 252.5C352.6 248.3 355.4 245.6 360.5 247.3Z" fill="#FFE75C"/>
<path d="M360.5 247.3C361.039 246.663 361.54 245.996 362 245.3C362.267 244.929 362.452 244.505 362.542 244.056C362.632 243.608 362.624 243.145 362.52 242.7C362.416 242.254 362.217 241.836 361.938 241.474C361.658 241.112 361.304 240.814 360.9 240.6C333.6 225.6 324 223.8 309 223.8C299.3 223.8 299.8 226.3 300.7 230.9C293.8 237.3 293.9 239.5 298.7 245.8C303.5 252.1 305 254.6 309.5 254.6C314 254.6 324.5 254.7 333.7 250C342.9 245.3 347.3 242.9 360.5 247.3Z" fill="white"/>
<path d="M360.1 202C349 200.1 337.7 198.9 337.6 198.9C337.487 198.886 337.372 198.896 337.263 198.93C337.154 198.963 337.054 199.02 336.968 199.096C336.883 199.172 336.815 199.265 336.769 199.369C336.723 199.473 336.699 199.586 336.7 199.7C336.67 199.924 336.725 200.152 336.855 200.337C336.984 200.522 337.179 200.652 337.4 200.7C337.6 200.7 349.4 201.9 360.8 203.9C360.6 203.3 360.4 202.7 360.1 202Z" fill="black"/>
<path d="M337.8 198.4C337.206 199.263 336.671 200.165 336.2 201.1" stroke="black" stroke-width="2" stroke-linecap="round" stroke-linejoin="round"/>
<path d="M376.3 252.7L382.9 254.6" stroke="black" stroke-width="2" stroke-linecap="round" stroke-linejoin="round"/>
<path d="M319.4 183.7C319.298 184.077 319.164 184.445 319 184.8C318.931 184.961 318.821 185.102 318.68 185.207C318.54 185.313 318.374 185.379 318.2 185.4H317.9C317.79 185.367 317.689 185.312 317.602 185.236C317.516 185.161 317.446 185.068 317.399 184.964C317.352 184.86 317.327 184.746 317.327 184.632C317.328 184.517 317.352 184.404 317.4 184.3C317.5 184 319.6 177.8 321.5 173.4C321.58 173.222 321.722 173.08 321.9 173C321.9 174.2 322 175.3 322.1 176.5C322.2 177.7 320 181.9 319.4 183.7Z" fill="#FFC619"/>
<path d="M412.8 248C413.159 246.937 413.265 245.805 413.108 244.693C412.952 243.582 412.538 242.523 411.9 241.6C411.456 241.076 410.953 240.607 410.4 240.2C409.156 239.492 407.738 239.145 406.307 239.198C404.877 239.251 403.489 239.702 402.3 240.5C402.9 237.1 403.7 230.9 403.1 226.2C402.5 221.5 400.7 222.1 399.6 221.9C396.4 221.3 392 224.7 388.1 230.8C387.4 227.5 386.4 225.9 384.8 225.5C384.363 225.412 383.909 225.473 383.511 225.672C383.112 225.871 382.792 226.198 382.6 226.6L381.1 230.2C383.1 227.2 384.2 227.2 384.5 227.2C384.8 227.2 386.1 228 386.8 233.4C386.821 233.578 386.902 233.744 387.029 233.871C387.156 233.998 387.322 234.079 387.5 234.1C387.687 234.136 387.881 234.117 388.058 234.046C388.236 233.975 388.389 233.855 388.5 233.7C392.6 226.2 397 223.2 399.3 223.6C401.6 224 401.2 225.3 401.3 226.5C402.2 232.6 400.2 242.3 400.2 242.4C400.172 242.573 400.195 242.75 400.266 242.91C400.337 243.069 400.453 243.205 400.6 243.3C400.776 243.382 400.97 243.416 401.163 243.398C401.357 243.381 401.542 243.312 401.7 243.2C403.9 240.9 407.3 240.3 409.4 241.7C411.5 243.1 412.5 248.2 410.2 254.5C411.254 252.413 412.125 250.238 412.8 248Z" fill="#FFF4B3"/>
<path d="M396.2 207.1C399.6 205.2 400.8 204.1 403.8 207.1C407.8 205 408.6 205 410.8 208.2" stroke="#FFC619" stroke-width="2" stroke-linecap="round" stroke-linejoin="round"/>
<path d="M417.6 217.9C417.5 215.1 417.2 210.8 417.1 210.7C417.101 210.586 417.077 210.473 417.031 210.369C416.985 210.265 416.917 210.172 416.831 210.096C416.746 210.02 416.646 209.963 416.537 209.93C416.428 209.896 416.313 209.886 416.2 209.9C416.086 209.899 415.973 209.923 415.869 209.969C415.765 210.015 415.672 210.083 415.596 210.168C415.52 210.254 415.463 210.354 415.43 210.463C415.396 210.572 415.386 210.687 415.4 210.8C415.4 210.9 415.8 215.2 415.8 218C415.795 218.054 415.802 218.109 415.819 218.16C415.836 218.212 415.864 218.259 415.9 218.3H417.5L417.6 217.9Z" fill="black"/>
<path d="M418.7 214.5H416.5C416.382 214.5 416.265 214.477 416.156 214.432C416.046 214.386 415.947 214.32 415.864 214.236C415.78 214.153 415.714 214.054 415.668 213.944C415.623 213.835 415.6 213.718 415.6 213.6C415.625 213.379 415.73 213.175 415.896 213.027C416.063 212.88 416.278 212.799 416.5 212.8H418.7C418.922 212.799 419.137 212.88 419.303 213.027C419.47 213.175 419.575 213.379 419.6 213.6C419.6 213.718 419.577 213.835 419.531 213.944C419.486 214.054 419.42 214.153 419.336 214.236C419.253 214.32 419.154 214.386 419.044 214.432C418.935 214.477 418.818 214.5 418.7 214.5Z" fill="black"/>
<path d="M387.5 272.4C389.611 272.348 391.717 272.148 393.8 271.8" stroke="#FFC619" stroke-width="2" stroke-linecap="round" stroke-linejoin="round"/>
<path d="M323.5 294.2C312.1 292.8 307 290.7 306.9 290.7H306.8V292.5C308.5 293.1 313.6 294.7 323.3 296H323.4C323.622 296.001 323.837 295.92 324.004 295.773C324.17 295.625 324.275 295.421 324.3 295.2C324.314 295.082 324.304 294.962 324.271 294.847C324.239 294.733 324.183 294.626 324.109 294.533C324.034 294.44 323.942 294.363 323.838 294.305C323.733 294.248 323.618 294.212 323.5 294.2Z" fill="black"/>
<path d="M365.9 289.6C363.349 290.413 361.044 291.858 359.2 293.8" stroke="black" stroke-width="2" stroke-linecap="round" stroke-linejoin="round"/>
<path d="M402.7 297.9C406.741 296.112 410.651 294.04 414.4 291.7" stroke="black" stroke-width="2" stroke-linecap="round" stroke-linejoin="round"/>
<path d="M404.7 297L410 297.2" stroke="black" stroke-width="2" stroke-linecap="round" stroke-linejoin="round"/>
<path d="M301.6 230.4C318.2 228.8 330 232.6 346.3 239.9C330 238.8 310.8 238.2 310.8 238.2" stroke="#BAE8FF" stroke-width="2" stroke-linecap="round" stroke-linejoin="round"/>
<path d="M297.1 312.5H363.7C364.655 312.5 365.57 312.879 366.246 313.554C366.921 314.23 367.3 315.145 367.3 316.1V359.4H293.5V316.1C293.5 315.145 293.879 314.23 294.554 313.554C295.23 312.879 296.145 312.5 297.1 312.5Z" fill="#8CD9FF"/>
<path d="M360.7 312.5H363.7C364.655 312.5 365.57 312.879 366.246 313.554C366.921 314.23 367.3 315.145 367.3 316.1V359.4H357.1V316.1C357.1 315.627 357.193 315.159 357.374 314.722C357.555 314.286 357.82 313.889 358.154 313.554C358.489 313.22 358.886 312.955 359.322 312.774C359.759 312.593 360.227 312.5 360.7 312.5Z" fill="#45AAF7"/>
<path d="M303.3 345.6H347.3C348.096 345.6 348.859 345.916 349.421 346.479C349.984 347.041 350.3 347.804 350.3 348.6V359.4H300.4V348.6C300.4 347.821 300.702 347.073 301.243 346.513C301.784 345.953 302.522 345.626 303.3 345.6Z" fill="#45AAF7"/>
<path d="M305.3 312.5V359.4" stroke="#5865F2" stroke-width="2" stroke-miterlimit="10"/>
<path d="M345.2 312.5V359.4" stroke="#5865F2" stroke-width="2" stroke-miterlimit="10"/>
<path d="M347.7 316.1H302.8C301.419 316.1 300.3 317.219 300.3 318.6V334.59C300.3 335.971 301.419 337.09 302.8 337.09H347.7C349.081 337.09 350.2 335.971 350.2 334.59V318.6C350.2 317.219 349.081 316.1 347.7 316.1Z" fill="black"/>
<path d="M356.2 319.5C356.065 319.484 355.928 319.499 355.799 319.543C355.67 319.588 355.553 319.661 355.457 319.757C355.361 319.854 355.288 319.97 355.243 320.099C355.199 320.228 355.184 320.365 355.2 320.5C355.2 320.765 355.305 321.02 355.493 321.207C355.68 321.395 355.935 321.5 356.2 321.5H367.3V319.5H356.2Z" fill="#5865F2"/>
<path d="M355.2 324.8C355.184 324.935 355.199 325.072 355.243 325.201C355.288 325.33 355.361 325.446 355.457 325.543C355.553 325.639 355.67 325.712 355.799 325.757C355.928 325.801 356.065 325.816 356.2 325.8H367.3V323.8H356.2C355.935 323.8 355.68 323.905 355.493 324.093C355.305 324.28 355.2 324.535 355.2 324.8Z" fill="#5865F2"/>
<path d="M355.2 329.2C355.2 329.465 355.305 329.72 355.493 329.907C355.68 330.095 355.935 330.2 356.2 330.2H367.3V328.2H356.2C356.065 328.184 355.928 328.199 355.799 328.243C355.67 328.288 355.553 328.361 355.457 328.457C355.361 328.554 355.288 328.671 355.243 328.799C355.199 328.928 355.184 329.065 355.2 329.2Z" fill="#5865F2"/>
<path d="M295.3 320.5C295.278 320.758 295.165 320.999 294.982 321.182C294.799 321.365 294.558 321.477 294.3 321.5H293.5V319.5H294.3C294.565 319.5 294.82 319.605 295.007 319.793C295.195 319.98 295.3 320.235 295.3 320.5Z" fill="#5865F2"/>
<path d="M295.3 324.8C295.3 325.065 295.195 325.32 295.007 325.507C294.82 325.695 294.565 325.8 294.3 325.8H293.5V323.8H294.3C294.558 323.823 294.799 323.935 294.982 324.118C295.165 324.301 295.278 324.542 295.3 324.8Z" fill="#5865F2"/>
<path d="M295.3 329.2C295.278 329.458 295.165 329.699 294.982 329.882C294.799 330.065 294.558 330.178 294.3 330.2H293.5V328.2H294.3C294.565 328.2 294.82 328.305 295.007 328.493C295.195 328.68 295.3 328.935 295.3 329.2Z" fill="#5865F2"/>
<path d="M334.9 317.6H305.6C304.882 317.6 304.3 318.182 304.3 318.9V332.75C304.3 333.468 304.882 334.05 305.6 334.05H334.9C335.618 334.05 336.2 333.468 336.2 332.75V318.9C336.2 318.182 335.618 317.6 334.9 317.6Z" fill="#FFF4B3"/>
<path d="M347.3 334.1H339.3C338.803 334.1 338.4 334.503 338.4 335V336.22C338.4 336.717 338.803 337.12 339.3 337.12H347.3C347.797 337.12 348.2 336.717 348.2 336.22V335C348.2 334.503 347.797 334.1 347.3 334.1Z" fill="#FF78B9"/>
<path d="M316.1 319.5C316.1 321.94 317.069 324.28 318.795 326.005C320.52 327.731 322.86 328.7 325.3 328.7C327.74 328.7 330.08 327.731 331.805 326.005C333.531 324.28 334.5 321.94 334.5 319.5C334.488 318.862 334.421 318.226 334.3 317.6H316.3C316.129 318.218 316.061 318.86 316.1 319.5Z" fill="#29CC7A"/>
<path d="M307 334.1H322C321.15 332.903 320.025 331.927 318.72 331.253C317.415 330.58 315.968 330.228 314.5 330.228C313.032 330.228 311.585 330.58 310.28 331.253C308.975 331.927 307.85 332.903 307 334.1Z" fill="#29CC7A"/>
<path d="M146.5 336.4C145.43 336.384 144.397 336.011 143.564 335.341C142.73 334.671 142.145 333.741 141.9 332.7C140.09 325.529 137.92 318.453 135.4 311.5C134.982 310.306 135.052 308.996 135.595 307.854C136.138 306.712 137.11 305.83 138.3 305.4C138.884 305.177 139.506 305.073 140.131 305.093C140.755 305.114 141.37 305.258 141.938 305.519C142.506 305.78 143.016 306.151 143.439 306.612C143.861 307.072 144.188 307.612 144.4 308.2C147.047 315.512 149.317 322.955 151.2 330.5C151.472 331.719 151.259 332.996 150.606 334.06C149.952 335.124 148.91 335.892 147.7 336.2L146.5 336.4Z" fill="#2331B5"/>
<path d="M70.9996 350.6C70.9996 350.6 62.1996 334.9 54.0996 323.4L39.6996 328.7C39.6996 328.7 53.9997 345.9 57.7997 359.4H59.3997C63.3725 359.454 67.3265 358.845 71.0996 357.6C74.8996 356.2 78.0996 354.4 79.4996 352C80.8996 349.6 76.7996 350.6 70.9996 350.6Z" fill="#FFC619"/>
<path d="M58.0996 329.4C56.7996 327.3 55.3996 325.3 54.0996 323.4L39.6996 328.7C39.6996 328.7 43.6996 333.5 47.9996 340C46.8996 334.7 55.3996 330.6 58.0996 329.4Z" fill="black"/>
<path d="M39.9997 352.9C45.5997 340.7 45.1997 336.4 42.7997 324.9L27.3997 324.4C30.7997 338 31.1996 344 26.1996 355.2C25.673 356.534 25.5008 357.98 25.6996 359.4H49.8997C50.5997 357.2 48.4997 356.2 39.9997 352.9Z" fill="#FFC619"/>
<path d="M43.9996 330.8C43.6996 329 43.2997 327.1 42.7997 324.9L27.3997 324.4C28.3837 328.322 29.1514 332.294 29.6996 336.3C29.6996 336.3 37.1996 332.1 43.9996 330.8Z" fill="black"/>
<path d="M61.6995 272.6C62.3343 270.469 62.1193 268.176 61.0996 266.2C60.779 265.535 60.6649 264.789 60.7718 264.058C60.8787 263.328 61.2018 262.646 61.6995 262.1C62.4157 261.149 62.9265 260.059 63.1995 258.9C64.3995 254.9 62.5996 250.7 59.3996 249.7C56.1996 248.7 52.4996 251.1 51.3996 255.2C50.821 257.303 51.0345 259.545 51.9996 261.5C52.3171 262.177 52.4386 262.929 52.3502 263.672C52.2618 264.414 51.9671 265.117 51.4996 265.7C50.7331 266.595 50.1854 267.657 49.8996 268.8C48.7996 272.9 50.4996 277 53.7996 278C57.0996 279 60.5995 276.6 61.6995 272.6Z" fill="white"/>
<path d="M59.6996 268.4C59.9776 267.321 60.0119 266.194 59.7997 265.1C59.6903 264.662 59.6694 264.206 59.738 263.76C59.8067 263.313 59.9636 262.885 60.1996 262.5C60.4666 261.914 60.7004 261.313 60.8997 260.7C61.3997 258.3 60.9997 256.2 59.8997 255.8C58.7997 255.4 57.2996 257 56.6996 259.4C56.371 260.651 56.4058 261.969 56.7997 263.2C56.8927 263.447 56.9231 263.714 56.8882 263.975C56.8533 264.237 56.7541 264.486 56.5996 264.7C56.1929 265.433 55.858 266.203 55.5996 267C54.8996 269.4 55.3996 271.6 56.5996 271.9C57.7996 272.2 59.0996 270.7 59.6996 268.4Z" fill="black"/>
<path d="M142.2 289C153.908 289 163.4 279.509 163.4 267.8C163.4 256.092 153.908 246.6 142.2 246.6C130.491 246.6 121 256.092 121 267.8C121 279.509 130.491 289 142.2 289Z" fill="#8CD9FF"/>
<path d="M137.3 280.9C129.8 278.1 122.9 277.3 120.1 278.7C119.706 278.89 119.374 279.189 119.144 279.561C118.914 279.933 118.794 280.363 118.8 280.8V293.1L143 302.2L151.2 293C151.495 292.684 151.691 292.287 151.762 291.86C151.833 291.434 151.776 290.995 151.6 290.6C150.5 287.7 144.8 283.7 137.3 280.9Z" fill="white"/>
<path d="M61.6996 327L26.2997 331.9C25.6837 331.997 25.053 331.928 24.4728 331.699C23.8926 331.471 23.384 331.091 22.9996 330.6L0.999638 302.3C0.646495 301.797 0.417094 301.218 0.330204 300.61C0.243315 300.002 0.301396 299.382 0.499638 298.8L13.9996 265.7C14.2268 265.116 14.6065 264.604 15.099 264.217C15.5915 263.83 16.1788 263.583 16.7997 263.5L52.1996 258.6C52.8224 258.544 53.4495 258.642 54.0252 258.887C54.6008 259.131 55.1072 259.513 55.4996 260L77.3997 288.2C77.7959 288.682 78.0522 289.263 78.1404 289.88C78.2286 290.497 78.1453 291.127 77.8997 291.7L64.4996 324.8C64.2556 325.373 63.8712 325.875 63.3817 326.259C62.8923 326.644 62.3137 326.899 61.6996 327Z" fill="#29CC7A"/>
<path d="M150.777 302.058C152.001 298.801 144.821 293.089 134.741 289.3C124.66 285.51 115.495 285.079 114.271 288.336C113.047 291.593 120.226 297.305 130.307 301.094C140.388 304.883 149.553 305.315 150.777 302.058Z" fill="#7AC5FF"/>
<path d="M114.1 287.3C114.351 286.662 114.742 286.089 115.244 285.622C115.746 285.155 116.346 284.806 117 284.6C121.9 283.2 129.1 284.1 135.2 286.4C141.3 288.7 147.3 292.8 150.1 297C150.496 297.579 150.748 298.244 150.835 298.939C150.922 299.635 150.841 300.342 150.6 301L150.3 301.7L113.8 288L114.1 287.3Z" fill="#7AC5FF"/>
<path d="M145.886 301.36C146.663 299.292 141.133 295.3 133.533 292.444C125.934 289.587 119.143 288.948 118.366 291.016C117.588 293.084 123.119 297.076 130.718 299.932C138.318 302.789 145.109 303.428 145.886 301.36Z" fill="white"/>
<path d="M139.6 356C133.4 328.7 145.5 301 145.5 301L131.7 295.8L112.9 345.9L139.6 356Z" fill="white"/>
<path d="M86.1996 335.9C108.8 319.4 117.9 290.7 117.9 290.7L131.7 295.8L112.9 345.9L86.1996 335.9Z" fill="white"/>
<path d="M142.419 357.255C144.051 352.913 132.341 344.493 116.263 338.45C100.185 332.407 85.8285 331.028 84.1962 335.371C82.5639 339.713 94.2743 348.133 110.352 354.176C126.43 360.219 140.787 361.598 142.419 357.255Z" fill="#3F99F2"/>
<path d="M84.0996 334.1C84.4427 333.214 84.9947 332.424 85.7085 331.798C86.4223 331.171 87.2769 330.726 88.1996 330.5C93.9996 329.1 105.4 331 116.9 335.3C128.4 339.6 138.1 345.7 141.7 350.6C142.233 351.383 142.566 352.284 142.671 353.225C142.776 354.167 142.648 355.119 142.3 356L142 356.9L83.7997 335L84.0996 334.1Z" fill="#3F99F2"/>
<path d="M110.7 351.8C98.2995 347.2 88.0995 341.3 87.6995 338.5C87.2995 335.7 98.9996 337 114.1 342.7C129.2 348.4 139.2 354.8 136.8 356.9C134.4 359 123 356.5 110.7 351.8Z" fill="#2331B5"/>
<path d="M20.5996 318.7L1.69958 300.7L14.8997 277.8L51.5996 293.5L62.0996 325.3L20.5996 318.7ZM20.5996 318.7L24.4996 329.9" stroke="#15AD75" stroke-width="2" stroke-linecap="round" stroke-linejoin="round"/>
<path d="M20.5996 318.7L14.8997 277.8L15.6996 265.3" stroke="#15AD75" stroke-width="2" stroke-linecap="round" stroke-linejoin="round"/>
<path d="M20.5996 318.7L51.5996 293.5L76.9996 290" stroke="#15AD75" stroke-width="2" stroke-linecap="round" stroke-linejoin="round"/>
<path d="M14.8997 277.8L52.9996 260.3L51.5996 293.5" stroke="#15AD75" stroke-width="2" stroke-linecap="round" stroke-linejoin="round"/>
<path d="M45.1996 268C44.6233 265.37 43.1793 263.01 41.0997 261.3C40.4289 260.735 39.9187 260.003 39.6203 259.178C39.3219 258.353 39.2458 257.464 39.3997 256.6C39.6135 255.272 39.5796 253.916 39.2997 252.6C38.1997 247.8 34.0996 243.9 30.1996 243.9C26.2996 243.9 23.9997 247.8 25.0997 252.6C25.6475 255.269 27.0947 257.67 29.1996 259.4C29.8704 259.966 30.3807 260.698 30.6791 261.522C30.9775 262.347 31.0536 263.236 30.8997 264.1C30.6843 265.395 30.7182 266.718 30.9997 268C32.0997 272.9 36.1997 276.8 40.0997 276.8C43.9997 276.8 46.2996 272.9 45.1996 268Z" fill="white"/>
<path d="M41.0996 265.8C40.8473 264.573 40.3359 263.414 39.5996 262.4C38.9877 261.553 38.6397 260.544 38.5996 259.5C38.5918 258.757 38.4911 258.018 38.2996 257.3C37.6996 254.5 35.9996 252 34.5996 251.7C33.1996 251.4 32.4995 253.6 33.1995 256.5C33.6352 258.148 34.4196 259.682 35.4996 261C35.7269 261.22 35.9064 261.485 36.0268 261.777C36.1473 262.07 36.206 262.384 36.1995 262.7C36.0888 263.666 36.1226 264.644 36.2996 265.6C36.8996 268.3 38.5996 270.4 39.8996 270.4C41.1996 270.4 41.6996 268.4 41.0996 265.8Z" fill="black"/>
<path d="M58.7997 297.4C59.9648 301.018 61.5065 304.504 63.3997 307.8C64.8997 309.9 66.4997 310 67.7997 307.8C69.0997 305.6 70.4997 301.3 71.8997 297.8" stroke="black" stroke-width="2" stroke-linecap="round" stroke-linejoin="round"/>
<path d="M56.5996 297.9C57.7063 297.191 58.7745 296.423 59.7997 295.6" stroke="black" stroke-width="2" stroke-linecap="round" stroke-linejoin="round"/>
<path d="M39.9996 352.9H36.2997" stroke="black" stroke-width="2" stroke-linecap="round" stroke-linejoin="round"/>
<path d="M70.9996 350.6L67.6996 351.5" stroke="black" stroke-width="2" stroke-linecap="round" stroke-linejoin="round"/>
<path d="M87.6995 338.5C87.7995 339.8 90.0995 341.7 93.6995 343.9L96.6995 337.5C90.9995 336.5 87.3995 336.7 87.6995 338.5Z" fill="black"/>
<path d="M122.9 355.8C130 357.6 135.4 358.2 136.8 356.9C138.2 355.6 134 351.7 125.8 347.7L122.9 355.8Z" fill="black"/>
<path d="M116.6 302.3L116.4 301.7C114.3 304.8 112.6 307.7 115.2 308.7C117.8 309.7 124.1 307.6 133.2 303.6V302.3C122.3 305 115.1 305.4 116.6 302.3Z" fill="#5865F2"/>
<path d="M116.6 302.3L116.4 301.7C114.3 304.7 112.7 307.6 115 308.6C115.305 306.92 115.952 305.321 116.9 303.9C116.769 303.82 116.657 303.713 116.57 303.587C116.483 303.46 116.424 303.317 116.396 303.167C116.368 303.016 116.371 302.861 116.406 302.712C116.441 302.563 116.507 302.422 116.6 302.3Z" fill="black"/>
<path d="M116.4 303.3C116.536 303.69 116.636 304.092 116.7 304.5C116.785 304.849 116.959 305.17 117.204 305.433C117.449 305.695 117.757 305.891 118.1 306C120.1 306.7 124 306.4 133.2 303.6V302.3C123.7 304.7 117.1 305.2 116.4 303.3Z" fill="black"/>
<path d="M132.9 301.4C132.549 302.715 132.729 304.116 133.4 305.3" stroke="black" stroke-width="2" stroke-linecap="round" stroke-linejoin="round"/>
<path d="M115.7 302.1L117 301.5" stroke="black" stroke-width="2" stroke-linecap="round" stroke-linejoin="round"/>
<path d="M125.1 263.6C125.688 262.027 126.649 260.621 127.9 259.5C129.214 258.392 130.747 257.574 132.4 257.1C133.284 256.891 134.191 256.79 135.1 256.8C136.109 256.859 137.081 257.206 137.9 257.8C138.309 258.113 138.652 258.504 138.91 258.95C139.167 259.396 139.334 259.889 139.4 260.4C139.483 260.868 139.472 261.347 139.369 261.81C139.266 262.273 139.073 262.712 138.8 263.1C138.7 263.3 138.4 263.3 138.2 263.2C138.163 263.16 138.136 263.112 138.119 263.06C138.102 263.009 138.095 262.954 138.1 262.9C138.037 262.2 137.833 261.519 137.5 260.9C137.274 260.474 136.926 260.125 136.5 259.9C135.381 259.474 134.159 259.404 133 259.7C131.693 260.044 130.445 260.583 129.3 261.3C128.015 262.033 126.865 262.98 125.9 264.1C125.806 264.192 125.681 264.243 125.55 264.243C125.419 264.243 125.293 264.192 125.2 264.1C125.127 264.041 125.078 263.959 125.06 263.868C125.041 263.777 125.055 263.682 125.1 263.6Z" fill="black"/>
<path d="M127.2 322.4C132.961 326.107 138.353 330.36 143.3 335.1C144.178 335.9 145.312 336.361 146.5 336.4C147.155 336.408 147.806 336.279 148.408 336.021C149.011 335.762 149.553 335.381 150 334.9C150.853 333.961 151.309 332.728 151.272 331.46C151.235 330.192 150.707 328.987 149.8 328.1C141.5 320.4 135.2 316 132.2 314.2C129.2 312.4 127.3 311.9 122.6 311.9C120.8 311.9 120.3 312.5 118.8 315.8C117.3 319.1 118.9 320.2 122.5 320.2C124 320.2 125.3 321.1 127.2 322.4Z" fill="#2331B5"/>
<path d="M110.5 310.8C109.126 310.515 107.695 310.765 106.5 311.5C105.849 311.854 105.272 312.329 104.8 312.9L104.2 313.7C102.4 316 101.5 317.1 101.6 317.9C101.653 318.655 101.821 319.397 102.1 320.1L103 318.9C104.9 316.4 107.7 317.3 108.8 317.3C109.9 317.3 110.8 314.9 111.7 313.1C112.6 311.3 112.3 310.9 110.5 310.8Z" fill="#2331B5"/>
<path d="M131.1 313.6C129.6 312.9 129 310.9 128.6 309.7C128.2 308.5 127.3 308.7 126.5 309C125.7 309.3 125.3 310 126.2 312.8C127.1 315.6 131.1 313.6 131.1 313.6Z" fill="#2331B5"/>
</svg>
